
erDiagram
    Drive {
        String id PK
    }
    
    PHDocument {
        String id PK
        String revision
        DateTime created
        DateTime lastModified
        String documentType
        String initialState
    }
    
    DriveDocument {
        String driveId PK,FK
        String documentId PK,FK
    }
    
    Operation {
        String id PK
        String documentId FK
        String scope
        String branch
        Int index
        String input
        String type
    }
    
    Drive ||--o{ DriveDocument : contains
    PHDocument ||--o{ DriveDocument : "belongs to"
    PHDocument ||--o{ Operation : has
